<mxfile host="app.diagrams.net" modified="2023-11-13T11:40:08.948Z" agent="Mozilla/5.0 (Macintosh; Intel Mac OS X 10_15_7) AppleWebKit/537.36 (KHTML, like Gecko) Chrome/119.0.0.0 Safari/537.36" version="22.1.0" etag="VSDDwRtnNj9EI0GYPCl2" type="github">
  <diagram name="第 1 页" id="oWAB5V4o0BH9CkxfJxY2">
    <mxGraphModel>
      <root>
        <mxCell id="0" />
        <mxCell id="1" parent="0" />
      </root>
    </mxGraphModel>
  </diagram>
</mxfile>
